{"title":"Swamp Devil 2008 DVDRip Xvid BigPerm LKRG","uid":6378217,"size":1110417190,"categoryP":"video","categoryS":"movies","magnet":"?xt=urn:btih:ff0b8b4e111562421c53e4aa588271589c3aec4c&amp;dn=Swamp+Devil+2008+DVDRip+Xvid+BigPerm+LKRG&amp;tr=udp%3A%2F%2Ftracker.openbittorrent.com%3A80&amp;tr=udp%3A%2F%2Fopen.demonii.com%3A1337&amp;tr=udp%3A%2F%2Ftracker.coppersurfer.tk%3A6969&amp;tr=udp%3A%2F%2Fexodus.desync.com%3A6969","seeders":0,"leechers":0,"uploader":".BONE.","files":2,"time":1304899498,"description":"PLOT\n\nSweet young Melanie Blaine returns to her small backwoods country hometown of Gibbington to\ncheck on her estranged ex-sheriff father Howard, who's the primary suspect in a series of\ngrisly murders.\n &lt;a href=&quot;\nhttp://www.imdb.com/title/tt1105742/&quot; rel=&quot;nofollow&quot; target=&quot;_NEW&quot;&gt;\nhttp://www.imdb.com/title/tt1105742/&lt;/a&gt;\n\n\nEncoded By .......: BigPerm1828\nRuntime ..........: 1h 30mn\nFile Size ........: 1.03 GB\nResolution .......: 704x396\nIMDb URL .........: http://www.imdb.com/title/tt1105742/\nLanguage .........: English\nVideo\nID : 0\nFormat : MPEG-4 Visual\nFormat profile : Advanced Simple@L5\nFormat settings, BVOP : Yes\nFormat settings, QPel : No\nFormat settings, GMC : No warppoints\nFormat settings, Matrix : Default (H.263)\nCodec ID : XVID\nCodec ID/Hint : XviD\nDuration : 1h 30mn\nBit rate : 1 189 Kbps\nWidth : 704 pixels\nHeight : 396 pixels\nDisplay aspect ratio : 16:9\nFrame rate : 23.976 fps\nColor space : YUV\nChroma subsampling : 4:2:0\nBit depth : 8 bits\nScan type : Progressive\nCompression mode : Lossy\nBits/(Pixel*Frame) : 0.178\nStream size : 766 MiB (72%)\nWriting library : XviD 1.2.1 (UTC 2008-12-04)\n\nAudio\nID : 1\nFormat : AC-3\nFormat/Info : Audio Coding 3\nMode extension : CM (complete main)\nCodec ID : 2000\nDuration : 1h 30mn\nBit rate mode : Constant\nBit rate : 448 Kbps\nChannel(s) : 6 channels\nChannel positions : Front: L C R, Side: L R, LFE\nSampling rate : 48.0 KHz\nBit depth : 16 bits\nCompression mode : Lossy\nVideo delay : 42ms\nStream size : 289 MiB (27%)\nAlignment : Split accross interleaves\nInterleave, duration : 500 ms (11.99 video frames)\nInterleave, preload duration : 500 ms\n &lt;a href=&quot;\nhttp://www.grinshare.com/img/9KMNTB.png&quot; rel=&quot;nofollow&quot; target=&quot;_NEW&quot;&gt;\nhttp://www.grinshare.com/img/9KMNTB.png&lt;/a&gt;\n &lt;a href=&quot;\nhttp://www.grinshare.com/img/W5JF6E.png&quot; rel=&quot;nofollow&quot; target=&quot;_NEW&quot;&gt;\nhttp://www.grinshare.com/img/W5JF6E.png&lt;/a&gt;\n &lt;a href=&quot;\nhttp://www.grinshare.com/img/2F8HXT.png&quot; rel=&quot;nofollow&quot; target=&quot;_NEW&quot;&gt;\nhttp://www.grinshare.com/img/2F8HXT.png&lt;/a&gt;\n &lt;a href=&quot;\nhttp://www.grinshare.com/img/HJC9KJ.png&quot; rel=&quot;nofollow&quot; target=&quot;_NEW&quot;&gt;\nhttp://www.grinshare.com/img/HJC9KJ.png&lt;/a&gt;\n &lt;a href=&quot;\nhttp://www.grinshare.com/img/F2BYOI.png&quot; rel=&quot;nofollow&quot; target=&quot;_NEW&quot;&gt;\nhttp://www.grinshare.com/img/F2BYOI.png&lt;/a&gt;","torrent":{"xt":"urn:btih:ff0b8b4e111562421c53e4aa588271589c3aec4c","amp;dn":"Swamp+Devil+2008+DVDRip+Xvid+BigPerm+LKRG","amp;tr":["udp%3A%2F%2Ftracker.openbittorrent.com%3A80","udp%3A%2F%2Fopen.demonii.com%3A1337","udp%3A%2F%2Ftracker.coppersurfer.tk%3A6969","udp%3A%2F%2Fexodus.desync.com%3A6969"],"infoHash":"ff0b8b4e111562421c53e4aa588271589c3aec4c","infoHashBuffer":{"type":"Buffer","data":[255,11,139,78,17,21,98,66,28,83,228,170,88,130,113,88,156,58,236,76]},"announce":[],"urlList":[]}}